{"title":"Honeydripper.2007.DVDRip.XViD.AC3(5.1).SWESUB.avi","uid":5522703,"size":1468794880,"categoryP":"video","categoryS":"movies","magnet":"?xt=urn:btih:641271176fdc2a4599326579c178d5515f0db7b1&amp;dn=Honeydripper.2007.DVDRip.XViD.AC3%285.1%29.SWESUB.avi&amp;tr=udp%3A%2F%2Ftracker.openbittorrent.com%3A80&amp;tr=udp%3A%2F%2Fopen.demonii.com%3A1337&amp;tr=udp%3A%2F%2Ftracker.coppersurfer.tk%3A6969&amp;tr=udp%3A%2F%2Fexodus.desync.com%3A6969","seeders":0,"leechers":1,"uploader":"Zen_Bud","files":-1,"time":1272655180,"description":"General\nComplete name                    : Honyedripper.avi\nFormat                           : AVI\nOverall bit rate                 : 1 748 Kbps\nWriting application              : VirtualDubMod 1.5.4.1 (build 2178/release)\nWriting library                  : VirtualDubMod build 2178/release\n\nVideo\nID                               : 0\nFormat                           : MPEG-4 Visual\nCodec ID/Hint                    : XviD\nBit rate                         : 1 293 Kbps\nWidth                            : 624 pixels\nHeight                           : 352 pixels\nDisplay aspect ratio             : 16:9\nResolution                       : 8 bits\nColorimetry                      : 4:2:0\nScan type                        : Progressive\nBits/(Pixel*Frame)               : 0.235\nStream size                      : 518 MiB (74%)\nWriting library                  : XviD 1.2.0.dev47 (UTC 2006-11-01)\n\nAudio\nID                               : 1\nFormat                           : AC-3\nBit rate mode                    : Constant\nBit rate                         : 448 Kbps\nChannel(s)                       : 6 channels\nChannel positions                : Front: L C R, Side: L R, LFE\nSampling rate                    : 48.0 KHz\nStream size                      : 179 MiB (26%)\nLanguage                         : English \n\n","torrent":{"xt":"urn:btih:641271176fdc2a4599326579c178d5515f0db7b1","amp;dn":"Honeydripper.2007.DVDRip.XViD.AC3%285.1%29.SWESUB.avi","amp;tr":["udp%3A%2F%2Ftracker.openbittorrent.com%3A80","udp%3A%2F%2Fopen.demonii.com%3A1337","udp%3A%2F%2Ftracker.coppersurfer.tk%3A6969","udp%3A%2F%2Fexodus.desync.com%3A6969"],"infoHash":"641271176fdc2a4599326579c178d5515f0db7b1","infoHashBuffer":{"type":"Buffer","data":[100,18,113,23,111,220,42,69,153,50,101,121,193,120,213,81,95,13,183,177]},"announce":[],"urlList":[]}}